<?xml version="1.0" encoding="UTF-8"?>
<svg xmlns="http://www.w3.org/2000/svg" xmlns:xlink="http://www.w3.org/1999/xlink" width="566.93pt" height="175.24pt" viewBox="0 0 566.93 175.24" version="1.1">
<defs>
<clipPath id="clip1">
  <path d="M 0 0 L 566.929688 0 L 566.929688 126 L 0 126 Z M 0 0 "/>
</clipPath>
<clipPath id="clip2">
  <path d="M 490 86 L 566.929688 86 L 566.929688 93 L 490 93 Z M 490 86 "/>
</clipPath>
<clipPath id="clip3">
  <path d="M 482 96 L 566.929688 96 L 566.929688 103 L 482 103 Z M 482 96 "/>
</clipPath>
<clipPath id="clip4">
  <path d="M 498 75 L 566.929688 75 L 566.929688 82 L 498 82 Z M 498 75 "/>
</clipPath>
<clipPath id="clip5">
  <path d="M 0 145 L 566.929688 145 L 566.929688 149 L 0 149 Z M 0 145 "/>
</clipPath>
<clipPath id="clip6">
  <path d="M 0 158 L 566.929688 158 L 566.929688 162 L 0 162 Z M 0 158 "/>
</clipPath>
<clipPath id="clip7">
  <path d="M 0 171 L 566.929688 171 L 566.929688 175 L 0 175 Z M 0 171 "/>
</clipPath>
<clipPath id="clip8">
  <path d="M 318 144 L 355 144 L 355 175.238281 L 318 175.238281 Z M 318 144 "/>
</clipPath>
<clipPath id="clip9">
  <path d="M 339 144 L 377 144 L 377 175.238281 L 339 175.238281 Z M 339 144 "/>
</clipPath>
</defs>
<g id="surface1">
<g clip-path="url(#clip1)" clip-rule="nonzero">
<path style=" stroke:none;fill-rule:nonzero;fill:rgb(100%,79.598999%,1.599121%);fill-opacity:1;" d="M 566.925781 0.00390625 L 566.925781 125.113281 L 0 125.113281 L 0 0.00390625 L 566.925781 0.00390625 "/>
</g>
<path style=" stroke:none;fill-rule:nonzero;fill:rgb(84.298706%,8.599854%,20.799255%);fill-opacity:1;" d="M 99.699219 22.472656 L 81.585938 47.078125 C 81.585938 47.078125 175.488281 47.078125 180.304688 47.078125 C 185.292969 47.078125 185.226563 48.976563 182.789063 52.277344 C 180.3125 55.632813 176.167969 61.464844 173.644531 64.871094 C 172.363281 66.601563 170.050781 69.753906 177.71875 69.753906 C 185.832031 69.753906 218.089844 69.753906 218.089844 69.753906 C 218.089844 69.753906 224.597656 60.898438 230.050781 53.492188 C 237.472656 43.425781 230.691406 22.472656 204.167969 22.472656 C 180.421875 22.472656 99.699219 22.472656 99.699219 22.472656 "/>
<path style=" stroke:none;fill-rule:nonzero;fill:rgb(84.298706%,8.599854%,20.799255%);fill-opacity:1;" d="M 74.257813 102.640625 L 110.640625 53.210938 C 110.640625 53.210938 150.96875 53.210938 155.785156 53.210938 C 160.777344 53.210938 160.710938 55.105469 158.269531 58.410156 C 155.796875 61.761719 151.582031 67.535156 149.058594 70.941406 C 147.777344 72.671875 145.464844 75.824219 153.132813 75.824219 C 161.242188 75.824219 213.613281 75.824219 213.613281 75.824219 C 208.585938 82.714844 192.269531 102.640625 162.972656 102.640625 C 139.230469 102.640625 74.257813 102.640625 74.257813 102.640625 "/>
<path style=" stroke:none;fill-rule:nonzero;fill:rgb(84.298706%,8.599854%,20.799255%);fill-opacity:1;" d="M 282.613281 75.820313 L 262.882813 102.640625 L 210.84375 102.640625 C 210.84375 102.640625 230.558594 75.824219 230.578125 75.824219 L 282.613281 75.820313 "/>
<path style=" stroke:none;fill-rule:nonzero;fill:rgb(84.298706%,8.599854%,20.799255%);fill-opacity:1;" d="M 362.339844 69.753906 L 235.046875 69.753906 L 269.855469 22.472656 L 321.882813 22.472656 L 301.933594 49.582031 L 325.15625 49.582031 L 345.113281 22.472656 L 397.136719 22.472656 L 362.339844 69.753906 "/>
<path style=" stroke:none;fill-rule:nonzero;fill:rgb(84.298706%,8.599854%,20.799255%);fill-opacity:1;" d="M 357.871094 75.824219 L 338.132813 102.640625 L 286.109375 102.640625 C 286.109375 102.640625 305.828125 75.824219 305.847656 75.824219 L 357.871094 75.824219 "/>
<path style=" stroke:none;fill-rule:nonzero;fill:rgb(84.298706%,8.599854%,20.799255%);fill-opacity:1;" d="M 0 86.398438 L 76.667969 86.398438 L 72.480469 92.097656 L 0 92.097656 L 0 86.398438 "/>
<path style=" stroke:none;fill-rule:nonzero;fill:rgb(84.298706%,8.599854%,20.799255%);fill-opacity:1;" d="M 0 75.824219 L 84.457031 75.824219 L 80.261719 81.515625 L 0 81.515625 L 0 75.824219 "/>
<path style=" stroke:none;fill-rule:nonzero;fill:rgb(84.298706%,8.599854%,20.799255%);fill-opacity:1;" d="M 0 96.980469 L 68.882813 96.980469 L 64.714844 102.640625 L 0 102.640625 L 0 96.980469 "/>
<g clip-path="url(#clip2)" clip-rule="nonzero">
<path style=" stroke:none;fill-rule:nonzero;fill:rgb(84.298706%,8.599854%,20.799255%);fill-opacity:1;" d="M 566.929688 92.097656 L 490.558594 92.097656 L 494.746094 86.398438 L 566.929688 86.398438 L 566.929688 92.097656 "/>
</g>
<g clip-path="url(#clip3)" clip-rule="nonzero">
<path style=" stroke:none;fill-rule:nonzero;fill:rgb(84.298706%,8.599854%,20.799255%);fill-opacity:1;" d="M 566.929688 102.640625 L 482.792969 102.648438 L 486.960938 96.980469 L 566.929688 96.980469 L 566.929688 102.640625 "/>
</g>
<g clip-path="url(#clip4)" clip-rule="nonzero">
<path style=" stroke:none;fill-rule:nonzero;fill:rgb(84.298706%,8.599854%,20.799255%);fill-opacity:1;" d="M 502.527344 75.824219 L 566.929688 75.824219 L 566.929688 81.515625 L 498.339844 81.523438 L 502.527344 75.824219 "/>
</g>
<path style=" stroke:none;fill-rule:nonzero;fill:rgb(84.298706%,8.599854%,20.799255%);fill-opacity:1;" d="M 469.1875 22.472656 L 434.386719 69.753906 L 379.257813 69.753906 C 379.257813 69.753906 414.066406 22.472656 414.085938 22.472656 L 469.1875 22.472656 "/>
<path style=" stroke:none;fill-rule:nonzero;fill:rgb(84.298706%,8.599854%,20.799255%);fill-opacity:1;" d="M 374.796875 75.824219 C 374.796875 75.824219 370.992188 81.023438 369.144531 83.519531 C 362.609375 92.351563 368.386719 102.640625 389.714844 102.640625 C 414.339844 102.640625 473.265625 102.640625 473.265625 102.640625 L 493 75.824219 L 374.796875 75.824219 "/>
<g clip-path="url(#clip5)" clip-rule="nonzero">
<path style=" stroke:none;fill-rule:nonzero;fill:rgb(100%,79.598999%,1.599121%);fill-opacity:1;" d="M 0 145.453125 L 566.929688 145.453125 L 566.929688 148.289063 L 0 148.289063 L 0 145.453125 "/>
</g>
<g clip-path="url(#clip6)" clip-rule="nonzero">
<path style=" stroke:none;fill-rule:nonzero;fill:rgb(100%,79.598999%,1.599121%);fill-opacity:1;" d="M 0 158.679688 L 566.929688 158.679688 L 566.929688 161.515625 L 0 161.515625 L 0 158.679688 "/>
</g>
<g clip-path="url(#clip7)" clip-rule="nonzero">
<path style=" stroke:none;fill-rule:nonzero;fill:rgb(100%,79.598999%,1.599121%);fill-opacity:1;" d="M 0 171.902344 L 566.929688 171.902344 L 566.929688 174.734375 L 0 174.734375 L 0 171.902344 "/>
</g>
<path style=" stroke:none;fill-rule:nonzero;fill:rgb(84.298706%,8.599854%,20.799255%);fill-opacity:1;" d="M 190.371094 174.734375 L 207.433594 174.734375 L 210.15625 171.046875 L 197.460938 171.046875 L 204.578125 161.398438 L 216.140625 161.398438 L 218.867188 157.703125 L 207.304688 157.703125 L 213.617188 149.148438 L 226.316406 149.148438 L 229.039063 145.457031 L 211.976563 145.457031 L 190.371094 174.734375 "/>
<path style=" stroke:none;fill-rule:nonzero;fill:rgb(84.298706%,8.599854%,20.799255%);fill-opacity:1;" d="M 211.308594 174.734375 L 216.546875 174.734375 L 234.394531 162.320313 L 234.21875 174.734375 L 239.714844 174.734375 L 239.757813 159.425781 L 260.320313 145.457031 L 255.34375 145.457031 L 238.976563 156.699219 L 239.15625 145.457031 L 233.921875 145.457031 L 233.761719 159.511719 L 211.308594 174.734375 "/>
<path style=" stroke:none;fill-rule:evenodd;fill:rgb(84.298706%,8.599854%,20.799255%);fill-opacity:1;" d="M 243.679688 174.734375 L 248.042969 174.734375 L 256.679688 163.03125 L 260.953125 163.03125 C 266.453125 163.03125 273.433594 160.726563 278.230469 154.226563 C 283.152344 147.554688 279.511719 145.457031 273.269531 145.457031 L 265.285156 145.457031 Z M 266.925781 149.148438 L 270.632813 149.148438 C 273.339844 149.148438 276.363281 150.488281 273.640625 154.183594 C 270.789063 158.042969 266.425781 159.34375 263.722656 159.34375 L 259.402344 159.34375 L 266.925781 149.148438 "/>
<path style=" stroke:none;fill-rule:evenodd;fill:rgb(84.298706%,8.599854%,20.799255%);fill-opacity:1;" d="M 292.050781 149.148438 L 296.238281 149.148438 C 300.253906 149.148438 301.109375 150.824219 299.160156 153.46875 C 297.085938 156.277344 293.34375 158.042969 289.199219 158.042969 L 285.488281 158.042969 Z M 268.804688 174.734375 L 273.167969 174.734375 L 282.765625 161.734375 L 285.382813 161.734375 C 287.695313 161.734375 289.136719 161.734375 288.382813 164.585938 L 285.5625 174.734375 L 290.535156 174.734375 L 293.382813 163.074219 C 293.753906 161.273438 293.5625 160.644531 292.582031 160.140625 L 292.644531 160.054688 C 296.609375 159.46875 301.21875 156.949219 303.847656 153.386719 C 309.019531 146.382813 303.894531 145.457031 297.875 145.457031 L 290.410156 145.457031 L 268.804688 174.734375 "/>
<path style=" stroke:none;fill-rule:nonzero;fill:rgb(84.298706%,8.599854%,20.799255%);fill-opacity:1;" d="M 295.054688 174.734375 L 312.117188 174.734375 L 314.839844 171.046875 L 302.144531 171.046875 L 309.261719 161.398438 L 320.824219 161.398438 L 323.550781 157.703125 L 311.984375 157.703125 L 318.300781 149.148438 L 330.996094 149.148438 L 333.722656 145.457031 L 316.660156 145.457031 L 295.054688 174.734375 "/>
<g clip-path="url(#clip8)" clip-rule="nonzero">
<path style=" stroke:none;fill-rule:nonzero;fill:rgb(84.298706%,8.599854%,20.799255%);fill-opacity:1;" d="M 354.738281 146.003906 C 353.171875 145.289063 351.019531 144.953125 349.011719 144.953125 C 343.515625 144.953125 337.195313 147.722656 333.355469 152.925781 C 326.640625 162.023438 341.0625 160.222656 336.230469 166.765625 C 333.691406 170.203125 329.210938 171.550781 326.726563 171.550781 C 324.5 171.550781 322.5 170.710938 321.449219 170.121094 L 318.136719 174.023438 C 319.675781 174.652344 321.339844 175.238281 323.476563 175.238281 C 329.585938 175.238281 336.429688 172.765625 341.042969 166.515625 C 348.160156 156.867188 334.109375 158.167969 338.261719 152.546875 C 340.519531 149.484375 344.019531 148.644531 346.460938 148.644531 C 348.730469 148.644531 349.675781 149.023438 351.28125 149.859375 L 354.738281 146.003906 "/>
</g>
<g clip-path="url(#clip9)" clip-rule="nonzero">
<path style=" stroke:none;fill-rule:nonzero;fill:rgb(84.298706%,8.599854%,20.799255%);fill-opacity:1;" d="M 376.558594 146.003906 C 374.988281 145.289063 372.835938 144.953125 370.828125 144.953125 C 365.332031 144.953125 359.011719 147.722656 355.175781 152.925781 C 348.457031 162.023438 362.878906 160.222656 358.050781 166.765625 C 355.511719 170.203125 351.027344 171.550781 348.542969 171.550781 C 346.316406 171.550781 344.316406 170.710938 343.269531 170.121094 L 339.953125 174.023438 C 341.496094 174.652344 343.15625 175.238281 345.292969 175.238281 C 351.402344 175.238281 358.246094 172.765625 362.859375 166.515625 C 369.980469 156.867188 355.929688 158.167969 360.078125 152.546875 C 362.335938 149.484375 365.835938 148.644531 368.277344 148.644531 C 370.550781 148.644531 371.492188 149.023438 373.097656 149.859375 L 376.558594 146.003906 "/>
</g>
</g>
</svg>
