<svg width="69" height="48" viewBox="0 0 23 16" fill="none" xmlns="http://www.w3.org/2000/svg">
<path fill-rule="evenodd" clip-rule="evenodd" d="M6.25146 3.30398H11.7246C15.4437 3.30398 16.8729 5.36594 16.8729 7.97227C16.8729 11.09 14.8753 12.657 11.7246 12.657H6.25146V3.30398ZM6.77112 3.86489V12.1292H11.7245C14.7128 12.1292 16.3369 10.7106 16.3369 7.98882C16.3369 5.18455 14.5829 3.86489 11.7245 3.86489H6.77112ZM8.23282 8.13724C8.77996 8.13724 9.22351 7.68673 9.22351 7.131C9.22351 6.57527 8.77996 6.12476 8.23282 6.12476C7.68568 6.12476 7.24214 6.57527 7.24214 7.131C7.24214 7.68673 7.68568 8.13724 8.23282 8.13724ZM7.43708 8.56608H9.02867V11.4363H7.43708V8.56608Z" fill="black"/>
<path fill-rule="evenodd" clip-rule="evenodd" d="M14.5343 6.20718H14.989V7.59282H15.6549C15.4762 5.06897 13.5111 4.50812 11.7246 4.50812H9.82447V6.20718H10.1006C10.6203 6.20718 10.9288 6.55359 10.9288 7.13094C10.9288 7.70829 10.6203 8.0547 10.1168 8.0547H9.82447V11.4363H11.7246C14.6317 11.4363 15.6224 10.0672 15.6711 8.0547H14.5343V6.20718ZM12.3418 7.59282V8.0547H11.2049V6.20718H12.3093V6.66906H11.6597V6.88351H12.2768V7.34539H11.6759V7.59282H12.3418ZM12.5366 8.0547L13.0888 6.20718H13.7384L14.2906 8.0547H13.8196L13.7222 7.70829H13.1213L13.0238 8.0547H12.5366ZM13.2563 7.22986H13.2512V7.24635L13.2563 7.22986ZM13.2563 7.22986H13.5761L13.4299 6.71849H13.4136L13.2563 7.22986ZM9.82446 7.59276V6.669H10.1006C10.2792 6.669 10.4741 6.71849 10.4741 7.13088C10.4741 7.54328 10.2954 7.59276 10.1006 7.59276H9.82446Z" fill="#D50072"/>
</svg>
